<svg xmlns="http://www.w3.org/2000/svg" viewBox="0 0 80 80" role="img" aria-label="おてつだいボーナス"><g transform="translate(0 0)"><title>おてつだいボーナス</title><circle cx="40" cy="40" r="32" fill="#e7a939" stroke="#764712" stroke-width="2"/><circle cx="40" cy="40" r="27" fill="#fff0aa" stroke="#fff9d4" stroke-width="3"/><circle cx="40" cy="40" r="22" fill="#fff9d4" opacity=".85"/><g transform="translate(11 11) scale(.9)" fill="#e7a939" stroke="#6d420f" stroke-width="2" stroke-linejoin="round" stroke-linecap="round" style="color:#6d420f"><circle cx="34" cy="34" r="15" fill="#fff" stroke="currentColor" stroke-width="4"/><path d="M31 12h7m-4 0v7m0 15 6-6M10 27h10M8 37h10M47 11l2 5 5 2-5 2-2 5-2-5-5-2 5-2zM14 14l2 3 3 1-3 1-2 3-2-3-3-1 3-1z" fill="none" stroke="currentColor" stroke-width="3" stroke-linecap="round"/></g></g></svg>
