<svg xmlns="http://www.w3.org/2000/svg" viewBox="0 0 80 80" role="img" aria-label="食材確率アップS"><g transform="translate(0 0)"><title>食材確率アップS</title><circle cx="40" cy="40" r="32" fill="#aeb7c0" stroke="#59646d" stroke-width="2"/><circle cx="40" cy="40" r="27" fill="#fff" stroke="#f4f7f8" stroke-width="3"/><circle cx="40" cy="40" r="22" fill="#f4f7f8" opacity=".85"/><g transform="translate(11 11) scale(.9)" fill="#aeb7c0" stroke="#59646d" stroke-width="2" stroke-linejoin="round" stroke-linecap="round" style="color:#59646d"><path d="M33 20q-1-9 5-12M34 20q8-11 17-8-1 10-17 11" fill="#75c849" stroke="#2b7239"/><path d="M31 21q-14-8-19 4-4 12 7 26 7 7 15 3 8 4 15-3 11-14 7-26-5-12-22-4z" fill="#ed4d3f" stroke="currentColor" stroke-width="3"/><path d="M19 30q1-5 7-6" fill="none" stroke="#fff" stroke-width="4" stroke-linecap="round"/></g><circle cx="61" cy="61" r="12" fill="#aeb7c0" stroke="#59646d" stroke-width="2"/><text x="61" y="67" text-anchor="middle" font-size="17" font-family="system-ui,sans-serif" font-weight="900" fill="#59646d">S</text></g></svg>
